<?xml version="1.0" encoding="UTF-8" standalone="no"?>
<svg
   height="48"
   viewBox="0 96 960 960"
   width="48"
   version="1.1"
   id="svg4"
   sodipodi:docname="import_export.svg"
   inkscape:version="1.2 (dc2aedaf03, 2022-05-15)"
   xmlns:inkscape="http://www.inkscape.org/namespaces/inkscape"
   xmlns:sodipodi="http://sodipodi.sourceforge.net/DTD/sodipodi-0.dtd"
   xmlns="http://www.w3.org/2000/svg"
   xmlns:svg="http://www.w3.org/2000/svg">
  <defs
     id="defs8" />
  <sodipodi:namedview
     id="namedview6"
     pagecolor="#ffffff"
     bordercolor="#666666"
     borderopacity="1.0"
     inkscape:showpageshadow="2"
     inkscape:pageopacity="0.0"
     inkscape:pagecheckerboard="0"
     inkscape:deskcolor="#d1d1d1"
     showgrid="false"
     inkscape:zoom="10.697917"
     inkscape:cx="79.221032"
     inkscape:cy="25.752678"
     inkscape:window-width="2560"
     inkscape:window-height="1377"
     inkscape:window-x="-8"
     inkscape:window-y="-8"
     inkscape:window-maximized="1"
     inkscape:current-layer="svg4">
    <inkscape:page
       x="0"
       y="0"
       width="960"
       height="960"
       id="page381"
       inkscape:label="Import" />
    <inkscape:page
       x="970"
       y="0"
       width="960"
       height="960"
       id="page383"
       inkscape:label="Export"
       inkscape:export-filename="..\PNG\Export.png"
       inkscape:export-xdpi="96"
       inkscape:export-ydpi="96" />
  </sodipodi:namedview>
  <path
     d="M433 944V588L319 703l-68-67 229-229 229 229-68 67-114-115v356h-94ZM111 469V280.471Q111 241 138.475 213 165.95 185 205 185h549q38 0 66 27.828 28 27.827 28 67.372V469h-94V280H205v189h-94Z"
     id="path2" />
  <path
     d="M 1081.5,480.5 V 291.971 c 0,-26.314 9.1583,-48.80433 27.475,-67.471 18.3167,-18.66667 40.4917,-28 66.525,-28 h 549 c 25.3333,0 47.3333,9.276 66,27.82799 18.6667,18.55133 28,41.00867 28,67.372 V 480.5 h -94 v -189 h -549 v 189 z"
     id="path642" />
  <path
     d="m 1497.5,418.5 v 356 l 114,-115 68,67 -229,229 -229,-229 68,-67 114,115 V 518.97371 418.5 Z"
     id="path2-7" />
</svg>
