<?xml version="1.0" encoding="UTF-8" standalone="no"?>
<svg
   width="24"
   height="24"
   viewBox="0 0 24 24"
   version="1.1"
   id="svg1"
   sodipodi:docname="mod-lock.svg"
   xml:space="preserve"
   inkscape:export-filename="lock-open2.svg"
   inkscape:export-xdpi="96"
   inkscape:export-ydpi="96"
   inkscape:version="1.4 (86a8ad7, 2024-10-11)"
   xmlns:inkscape="http://www.inkscape.org/namespaces/inkscape"
   xmlns:sodipodi="http://sodipodi.sourceforge.net/DTD/sodipodi-0.dtd"
   xmlns="http://www.w3.org/2000/svg"
   xmlns:svg="http://www.w3.org/2000/svg"><defs
     id="defs1" /><sodipodi:namedview
     id="namedview1"
     pagecolor="#ffffff"
     bordercolor="#666666"
     borderopacity="1.0"
     inkscape:showpageshadow="2"
     inkscape:pageopacity="0.0"
     inkscape:pagecheckerboard="0"
     inkscape:deskcolor="#d1d1d1"
     inkscape:zoom="34.294679"
     inkscape:cx="12.334275"
     inkscape:cy="12.130162"
     inkscape:window-width="2560"
     inkscape:window-height="1377"
     inkscape:window-x="-8"
     inkscape:window-y="-8"
     inkscape:window-maximized="1"
     inkscape:current-layer="layer4"><inkscape:page
       x="0"
       y="0"
       width="24"
       height="24"
       id="page2"
       margin="0"
       bleed="0" /></sodipodi:namedview><g
     inkscape:groupmode="layer"
     id="layer3"
     inkscape:label="Original lock-open"
     style="display:none"><path
       fill="currentColor"
       d="m 12,17.5 c 1.1,0 2,-0.9 2,-2 0,-1.1 -0.9,-2 -2,-2 -1.1,0 -2,0.9 -2,2 0,1.1 0.9,2 2,2 m 6,-9 h -1 v -2 c 0,-2.76 -2.24,-5 -5,-5 -2.76,0 -5,2.24 -5,5 h 1.9 c 0,-1.71 1.39,-3.1 3.1,-3.1 1.71,0 3.1,1.39 3.1,3.1 v 2 H 6 c -1.1,0 -2,0.9 -2,2 v 10 c 0,1.1 0.9,2 2,2 h 12 c 1.1,0 2,-0.9 2,-2 v -10 c 0,-1.1 -0.9,-2 -2,-2 m 0,12 H 6 v -10 h 12 z"
       id="path1-6"
       inkscape:label="org-lock-open"
       style="display:none" /><path
       fill="currentColor"
       d="m 18,8.5 h -1 v -2 c 0,-2.76 -2.24,-5 -5,-5 -2.76,0 -5,2.24 -5,5 v 2 H 6 c -1.1,0 -2,0.9 -2,2 v 10 c 0,1.1 0.9,2 2,2 h 12 c 1.1,0 2,-0.9 2,-2 v -10 c 0,-1.1 -0.9,-2 -2,-2 m -9,-2 c 0,-1.66 1.34,-3 3,-3 1.66,0 3,1.34 3,3 v 2 H 9 Z m 9,14 H 6 v -10 h 12 z m -6,-3 c 1.1,0 2,-0.9 2,-2 0,-1.1 -0.9,-2 -2,-2 -1.1,0 -2,0.9 -2,2 0,1.1 0.9,2 2,2"
       id="path1"
       style="display:inline"
       inkscape:label="org-lock" /></g><g
     inkscape:groupmode="layer"
     id="layer4"
     inkscape:label="lock-2"
     style="display:inline"><path
       fill="currentColor"
       d="m 18,8.9086818 h -1 v -2 c 0,-2.76 -2.24,-5 -5,-5 -2.76,0 -5,2.24 -5,5 v 2 H 6 c -1.1,0 -2,0.9 -2,2.0000002 v 10 c 0,1.1 0.9,2 2,2 h 12 c 1.1,0 2,-0.9 2,-2 v -10 C 20,9.8086818 19.1,8.9086818 18,8.9086818 m -9,-2 c 0,-1.66 1.34,-3 3,-3 1.66,0 3,1.34 3,3 v 2 H 9 Z M 18,20.908682 H 6 v -10 h 12 z m -6,-3 c 1.1,0 2,-0.9 2,-2 0,-1.1 -0.9,-2 -2,-2 -1.1,0 -2,0.9 -2,2 0,1.1 0.9,2 2,2"
       id="path1-9"
       style="display:inline"
       inkscape:label="lock" /></g><g
     inkscape:groupmode="layer"
     id="layer1"
     inkscape:label="lock-open-2"
     style="display:none"
     transform="translate(0.00845076,1.0118208)"><path
       fill="currentColor"
       d="m 12,17 c 1.1,0 2,-0.9 2,-2 0,-1.1 -0.9,-2 -2,-2 -1.1,0 -2,0.9 -2,2 0,1.1 0.9,2 2,2 M 18,8 H 17 15.1 6 C 4.9,8 4,8.9 4,10 v 10 c 0,1.1 0.9,2 2,2 h 12 c 1.1,0 2,-0.9 2,-2 V 10 C 20,8.9 19.1,8 18,8 m 0,12 H 6 V 10 h 12 z"
       id="path1-8-1"
       sodipodi:nodetypes="csssccccssssssscccccc"
       style="display:inline"
       transform="translate(-0.00845076,-0.10313899)"
       inkscape:label="pathBase" /><path
       fill="currentColor"
       d="m 16.446359,9.6541242 1.332213,-1.491713 c 1.838454,-2.0585641 1.659814,-5.2213617 -0.398749,-7.0598157 -2.058565,-1.8384541 -5.221363,-1.65981417 -7.059817,0.39875 l 1.417127,1.2656024 c 1.139043,-1.2754147 3.101672,-1.3862672 4.377086,-0.247225 1.275415,1.1390423 1.386268,3.1016711 0.247226,4.3770859 l -1.332213,1.4917131 z"
       id="path1-8"
       sodipodi:nodetypes="cssccsccc"
       style="display:inline"
       inkscape:label="pathRotate" /></g></svg>
