<?xml version="1.0" encoding="UTF-8" standalone="no"?>
<svg
   height="48"
   width="48"
   version="1.1"
   id="svg4"
   sodipodi:docname="SCMGridIcons.svg"
   xml:space="preserve"
   inkscape:version="1.4 (86a8ad7, 2024-10-11)"
   inkscape:export-batch-path="Export"
   inkscape:export-batch-name="TabSheetHeatsImages"
   xmlns:inkscape="http://www.inkscape.org/namespaces/inkscape"
   xmlns:sodipodi="http://sodipodi.sourceforge.net/DTD/sodipodi-0.dtd"
   xmlns="http://www.w3.org/2000/svg"
   xmlns:svg="http://www.w3.org/2000/svg"><defs
     id="defs8" /><sodipodi:namedview
     id="namedview6"
     pagecolor="#ffffff"
     bordercolor="#666666"
     borderopacity="1.0"
     inkscape:showpageshadow="2"
     inkscape:pageopacity="0.0"
     inkscape:pagecheckerboard="0"
     inkscape:deskcolor="#d1d1d1"
     showgrid="false"
     inkscape:zoom="2.8284271"
     inkscape:cx="268.34702"
     inkscape:cy="39.951533"
     inkscape:window-width="2560"
     inkscape:window-height="1377"
     inkscape:window-x="-8"
     inkscape:window-y="-8"
     inkscape:window-maximized="1"
     inkscape:current-layer="layer1"
     showguides="true"><inkscape:page
       x="0"
       y="0"
       width="48"
       height="48"
       id="page6"
       margin="0"
       bleed="0"
       inkscape:label="RELAY_DOT"
       inkscape:export-filename="StrokeIMRelay.png"
       inkscape:export-xdpi="96"
       inkscape:export-ydpi="96" /></sodipodi:namedview><g
     inkscape:groupmode="layer"
     id="layer36"
     inkscape:label="STROKES UPDATED 1"
     transform="translate(-701.65186,-107.37794)"><circle
       style="display:inline;opacity:0.6;fill:#ff7f2a;fill-opacity:1;stroke-width:8.65996;stroke-miterlimit:0;stroke-dashoffset:0.8406;paint-order:markers stroke fill"
       id="path6-89"
       cx="725.65179"
       cy="131.37793"
       r="24"
       inkscape:label="Circle-RELAY" /><path
       d="m 756.93751,146.19522 h -9.06404 l -5.44821,-9.01518 q -0.61078,-1.02612 -1.1727,-1.83236 -0.56192,-0.80624 -1.14828,-1.36816 -0.56192,-0.58635 -1.19714,-0.87953 -0.61078,-0.31761 -1.34372,-0.31761 h -2.12554 v 13.41284 h -7.89134 V 111.1606 h 12.50888 q 12.75319,0 12.75319,9.52824 0,1.83236 -0.56192,3.39597 -0.56193,1.53918 -1.58805,2.78518 -1.02611,1.246 -2.492,2.14996 -1.44145,0.90396 -3.22494,1.41702 v 0.0977 q 0.7818,0.24431 1.51474,0.80623 0.73295,0.53749 1.41703,1.27043 0.68407,0.73295 1.29486,1.58805 0.63522,0.83066 1.14828,1.6369 z M 735.43788,117.073 v 9.74812 h 3.4204 q 2.54087,0 4.08004,-1.46588 1.56361,-1.49032 1.56361,-3.68914 0,-4.5931 -5.49706,-4.5931 z"
       id="text6"
       style="font-weight:bold;font-size:50.0355px;line-height:1.25;font-family:'Segoe UI';-inkscape-font-specification:'Segoe UI Bold';fill:#5c1c06;stroke-width:0.938167"
       transform="scale(0.98084826,1.0195257)"
       aria-label="R"
       inkscape:label="LetterR" /></g></svg>
