<?xml version="1.0" encoding="UTF-8" standalone="no"?>
<svg
   height="48"
   width="48"
   version="1.1"
   id="svg4"
   sodipodi:docname="SCMGridIcons.svg"
   xml:space="preserve"
   inkscape:version="1.4 (86a8ad7, 2024-10-11)"
   inkscape:export-batch-path="Export"
   inkscape:export-batch-name="TabSheetHeatsImages"
   xmlns:inkscape="http://www.inkscape.org/namespaces/inkscape"
   xmlns:sodipodi="http://sodipodi.sourceforge.net/DTD/sodipodi-0.dtd"
   xmlns="http://www.w3.org/2000/svg"
   xmlns:svg="http://www.w3.org/2000/svg"><defs
     id="defs8" /><sodipodi:namedview
     id="namedview6"
     pagecolor="#ffffff"
     bordercolor="#666666"
     borderopacity="1.0"
     inkscape:showpageshadow="2"
     inkscape:pageopacity="0.0"
     inkscape:pagecheckerboard="0"
     inkscape:deskcolor="#d1d1d1"
     showgrid="false"
     inkscape:zoom="2.8284271"
     inkscape:cx="268.34702"
     inkscape:cy="39.951533"
     inkscape:window-width="2560"
     inkscape:window-height="1377"
     inkscape:window-x="-8"
     inkscape:window-y="-8"
     inkscape:window-maximized="1"
     inkscape:current-layer="layer1"
     showguides="true"><inkscape:page
       x="0"
       y="0"
       width="48"
       height="48"
       id="page783"
       inkscape:label="HeatClosed"
       inkscape:export-filename="..\HeatNavigator\HeatClosed.png"
       inkscape:export-xdpi="96"
       inkscape:export-ydpi="96"
       margin="0"
       bleed="0" /></sodipodi:namedview><g
     inkscape:groupmode="layer"
     id="layer25"
     inkscape:label="HeatStatusCollection"
     style="display:inline"
     transform="translate(-2030)"><g
       inkscape:groupmode="layer"
       id="layer28"
       inkscape:label="OpenRacedClosed"><path
         d="m 2054,47.04049 q -4.7369,0 -8.9538,-1.814438 -4.217,-1.814439 -7.3652,-4.953706 -3.1483,-3.139267 -4.968,-7.344156 -1.8196,-4.204889 -1.8196,-8.92819 0,-4.780902 1.8196,-8.985791 1.8197,-4.20489 4.968,-7.3153553 3.1483,-3.110466 7.3652,-4.9249054 4.2169,-1.814438 8.9538,-1.814438 4.7946,0 9.0116,1.814438 4.217,1.8144394 7.3363,4.9249054 3.1194,3.1104653 4.9391,7.3153553 1.8196,4.204889 1.8196,8.985791 0,4.723301 -1.8196,8.92819 -1.8197,4.204889 -4.9391,7.344156 -3.1194,3.139267 -7.3363,4.953706 -4.2169,1.814438 -9.0116,1.814438 z m 0,-3.456073 q 8.2028,0 13.9218,-5.731322 5.7189,-5.731321 5.7189,-13.853094 0,-8.179374 -5.7189,-13.881895 -5.719,-5.7025223 -13.9218,-5.7025223 -8.145,0 -13.8929,5.7025223 -5.7476,5.702521 -5.7476,13.881895 0,8.121773 5.7476,13.853094 5.7479,5.731322 13.8929,5.731322 z M 2054,24 Z"
         id="path2-3-0-5"
         style="display:inline;fill:#000000;fill-opacity:1;stroke:none;stroke-width:1.15368;stroke-opacity:1" /><ellipse
         style="display:inline;fill:#000000;fill-opacity:1;stroke:none;stroke-width:1.7;stroke-dashoffset:0.8406;stroke-opacity:1;stop-color:#000000"
         id="path1571"
         cx="2054"
         cy="24"
         rx="19.775764"
         ry="19.719078" /></g></g></svg>
