<?xml version="1.0" encoding="UTF-8" standalone="no"?>
<svg
   height="48"
   width="48"
   version="1.1"
   id="svg4"
   sodipodi:docname="SCMCollection.svg"
   xml:space="preserve"
   inkscape:version="1.4 (86a8ad7, 2024-10-11)"
   inkscape:export-batch-path="Export"
   inkscape:export-batch-name=""
   xmlns:inkscape="http://www.inkscape.org/namespaces/inkscape"
   xmlns:sodipodi="http://sodipodi.sourceforge.net/DTD/sodipodi-0.dtd"
   xmlns="http://www.w3.org/2000/svg"
   xmlns:svg="http://www.w3.org/2000/svg"><defs
     id="defs8" /><sodipodi:namedview
     id="namedview6"
     pagecolor="#ffffff"
     bordercolor="#666666"
     borderopacity="1.0"
     inkscape:showpageshadow="2"
     inkscape:pageopacity="0.0"
     inkscape:pagecheckerboard="0"
     inkscape:deskcolor="#d1d1d1"
     showgrid="false"
     inkscape:zoom="1"
     inkscape:cx="570"
     inkscape:cy="160"
     inkscape:window-width="2560"
     inkscape:window-height="1377"
     inkscape:window-x="-8"
     inkscape:window-y="-8"
     inkscape:window-maximized="1"
     inkscape:current-layer="layer1"
     showguides="true"><inkscape:page
       x="0"
       y="0"
       width="48"
       height="48"
       id="page888"
       inkscape:label="EmptyCircle"
       inkscape:export-filename="..\HeatNavigator\EmptyCircle.png"
       inkscape:export-xdpi="96"
       inkscape:export-ydpi="96"
       margin="0"
       bleed="0" /></sodipodi:namedview><g
     inkscape:groupmode="layer"
     id="layer6"
     inkscape:label="EvBrown"
     transform="translate(-1276)"><path
       d="m 1300,47.04049 q -4.7369,0 -8.9538,-1.814438 -4.217,-1.814439 -7.3652,-4.953706 -3.1483,-3.139267 -4.968,-7.344156 -1.8196,-4.204889 -1.8196,-8.92819 0,-4.780902 1.8196,-8.985791 1.8197,-4.20489 4.968,-7.3153558 3.1483,-3.1104661 7.3652,-4.9249051 4.2169,-1.814438 8.9538,-1.814438 4.7946,0 9.0116,1.814438 4.217,1.814439 7.3363,4.9249051 3.1194,3.1104658 4.9391,7.3153558 1.8196,4.204889 1.8196,8.985791 0,4.723301 -1.8196,8.92819 -1.8197,4.204889 -4.9391,7.344156 -3.1194,3.139267 -7.3363,4.953706 -4.2169,1.814438 -9.0116,1.814438 z m 0,-3.456073 q 8.2028,0 13.9218,-5.731322 5.7189,-5.731322 5.7189,-13.853095 0,-8.179374 -5.7189,-13.881895 -5.719,-5.7025219 -13.9218,-5.7025219 -8.145,0 -13.8929,5.7025219 -5.7476,5.702521 -5.7476,13.881895 0,8.121773 5.7476,13.853095 5.7479,5.731322 13.8929,5.731322 z M 1300,24 Z"
       id="path2-3-0"
       style="stroke-width:1.15368" /></g></svg>
