<?xml version="1.0" encoding="UTF-8" standalone="no"?>
<svg
   height="48"
   width="48"
   version="1.1"
   id="svg4"
   sodipodi:docname="SCMCollection.svg"
   xml:space="preserve"
   inkscape:version="1.4 (86a8ad7, 2024-10-11)"
   inkscape:export-batch-path="Export"
   inkscape:export-batch-name=""
   xmlns:inkscape="http://www.inkscape.org/namespaces/inkscape"
   xmlns:sodipodi="http://sodipodi.sourceforge.net/DTD/sodipodi-0.dtd"
   xmlns="http://www.w3.org/2000/svg"
   xmlns:svg="http://www.w3.org/2000/svg"><defs
     id="defs8" /><sodipodi:namedview
     id="namedview6"
     pagecolor="#ffffff"
     bordercolor="#666666"
     borderopacity="1.0"
     inkscape:showpageshadow="2"
     inkscape:pageopacity="0.0"
     inkscape:pagecheckerboard="0"
     inkscape:deskcolor="#d1d1d1"
     showgrid="false"
     inkscape:zoom="1"
     inkscape:cx="570"
     inkscape:cy="160"
     inkscape:window-width="2560"
     inkscape:window-height="1377"
     inkscape:window-x="-8"
     inkscape:window-y="-8"
     inkscape:window-maximized="1"
     inkscape:current-layer="layer1"
     showguides="true"><inkscape:page
       x="0"
       y="0"
       width="48"
       height="48"
       id="page1332"
       inkscape:label="EvBlue"
       inkscape:export-filename="Export\SCMGridIcons.png"
       inkscape:export-xdpi="96"
       inkscape:export-ydpi="96"
       margin="0"
       bleed="0" /></sodipodi:namedview><g
     inkscape:groupmode="layer"
     id="layer1"
     inkscape:label="EvBlue"><ellipse
       style="opacity:0.5;fill:#afdde9;stroke:none;stroke-width:3.34902;stop-color:#000000"
       id="path289"
       cx="24"
       cy="24"
       rx="19.695723"
       ry="19.665907" /><path
       d="m 24,47.04049 q -4.736851,0 -8.953803,-1.814438 Q 10.829245,43.411613 7.6809723,40.272346 4.5326997,37.133079 2.7130559,32.92819 0.89341208,28.723301 0.89341208,24 q 0,-4.780902 1.81964382,-8.985791 Q 4.5326997,10.809319 7.6809723,7.6988531 10.829245,4.5883869 15.046197,2.7739483 19.263149,0.95950969 24,0.95950969 q 4.794617,0 9.011569,1.81443861 4.216953,1.8144386 7.336342,4.9249048 3.119389,3.1104659 4.939033,7.3153559 1.819644,4.204889 1.819644,8.985791 0,4.723301 -1.819644,8.92819 -1.819644,4.204889 -4.939033,7.344156 -3.119389,3.139267 -7.336342,4.953706 Q 28.794617,47.04049 24,47.04049 Z m 0,-3.456073 q 8.202839,0 13.921719,-5.731322 Q 43.6406,32.121773 43.6406,24 q 0,-8.179374 -5.718881,-13.881895 Q 32.202839,4.4155832 24,4.4155832 q -8.145072,0 -13.892836,5.7025218 Q 4.3594003,15.820626 4.3594003,24 q 0,8.121773 5.7477637,13.853095 Q 15.854928,43.584417 24,43.584417 Z M 24,24 Z"
       id="path2"
       style="stroke-width:1.15368" /></g></svg>
