<?xml version="1.0" encoding="UTF-8" standalone="no"?>
<svg
   height="48"
   width="48"
   version="1.1"
   id="svg4"
   sodipodi:docname="SCMCollection.svg"
   xml:space="preserve"
   inkscape:version="1.4 (86a8ad7, 2024-10-11)"
   inkscape:export-batch-path="Export"
   inkscape:export-batch-name=""
   xmlns:inkscape="http://www.inkscape.org/namespaces/inkscape"
   xmlns:sodipodi="http://sodipodi.sourceforge.net/DTD/sodipodi-0.dtd"
   xmlns="http://www.w3.org/2000/svg"
   xmlns:svg="http://www.w3.org/2000/svg"><defs
     id="defs8" /><sodipodi:namedview
     id="namedview6"
     pagecolor="#ffffff"
     bordercolor="#666666"
     borderopacity="1.0"
     inkscape:showpageshadow="2"
     inkscape:pageopacity="0.0"
     inkscape:pagecheckerboard="0"
     inkscape:deskcolor="#d1d1d1"
     showgrid="false"
     inkscape:zoom="1"
     inkscape:cx="570"
     inkscape:cy="160"
     inkscape:window-width="2560"
     inkscape:window-height="1377"
     inkscape:window-x="-8"
     inkscape:window-y="-8"
     inkscape:window-maximized="1"
     inkscape:current-layer="layer1"
     showguides="true"><inkscape:page
       x="0"
       y="0"
       width="48"
       height="48"
       id="page1353"
       inkscape:label="EvGreen"
       inkscape:export-filename="..\HeatNavigator\EvGreen.png"
       inkscape:export-xdpi="96"
       inkscape:export-ydpi="96"
       margin="0"
       bleed="0" /></sodipodi:namedview><g
     inkscape:groupmode="layer"
     id="layer3"
     inkscape:label="EvGreen"
     transform="translate(-116)"><ellipse
       style="opacity:0.5;fill:#afe9c6;stroke:none;stroke-width:3.34902;stop-color:#000000"
       id="path289-0"
       cx="140.01419"
       cy="24"
       rx="19.695723"
       ry="19.665907" /><path
       d="m 140.01418,47.040489 q -4.73685,0 -8.9538,-1.814438 -4.21696,-1.814439 -7.36523,-4.953706 -3.14827,-3.139267 -4.96791,-7.344156 -1.81965,-4.204889 -1.81965,-8.92819 0,-4.780902 1.81965,-8.985791 1.81964,-4.20489 4.96791,-7.315356 3.14827,-3.110466 7.36523,-4.9249046 4.21695,-1.81443855 8.9538,-1.81443855 4.79462,0 9.01157,1.81443855 4.21695,1.8144386 7.33634,4.9249046 3.11939,3.110466 4.93903,7.315356 1.81965,4.204889 1.81965,8.985791 0,4.723301 -1.81965,8.92819 -1.81964,4.204889 -4.93903,7.344156 -3.11939,3.139267 -7.33634,4.953706 -4.21695,1.814438 -9.01157,1.814438 z m 0,-3.456073 q 8.20284,0 13.92172,-5.731322 5.71888,-5.731322 5.71888,-13.853095 0,-8.179374 -5.71888,-13.881895 -5.71888,-5.7025217 -13.92172,-5.7025217 -8.14507,0 -13.89284,5.7025217 -5.74776,5.702521 -5.74776,13.881895 0,8.121773 5.74776,13.853095 5.74777,5.731322 13.89284,5.731322 z m 0,-19.584417 z"
       id="path2-6"
       style="stroke-width:1.15368" /></g></svg>
