<?xml version="1.0" encoding="UTF-8" standalone="no"?>
<svg
   height="48"
   width="48"
   version="1.1"
   id="svg4"
   sodipodi:docname="SCMCollection.svg"
   xml:space="preserve"
   inkscape:version="1.4 (86a8ad7, 2024-10-11)"
   inkscape:export-batch-path="Export"
   inkscape:export-batch-name=""
   xmlns:inkscape="http://www.inkscape.org/namespaces/inkscape"
   xmlns:sodipodi="http://sodipodi.sourceforge.net/DTD/sodipodi-0.dtd"
   xmlns="http://www.w3.org/2000/svg"
   xmlns:svg="http://www.w3.org/2000/svg"><defs
     id="defs8"><mask
       maskUnits="userSpaceOnUse"
       id="mask1584"><path
         style="fill:#ffffff;fill-opacity:1;stroke:none;stroke-width:1px;stroke-linecap:butt;stroke-linejoin:miter;stroke-opacity:1"
         d="M 347.54342,-0.36780477 371.54253,-0.23560954 371.54254,23.5 h -24.13132 z"
         id="path1586" /></mask><mask
       maskUnits="userSpaceOnUse"
       id="mask1612"><path
         style="fill:#ffffff;fill-opacity:1;stroke:none;stroke-width:1px;stroke-linecap:butt;stroke-linejoin:miter;stroke-opacity:1"
         d="m 371.15001,23.172685 23.99911,0.132195 1e-5,23.73561 h -24.13132 z"
         id="path1614" /></mask><mask
       maskUnits="userSpaceOnUse"
       id="mask1640"><path
         style="fill:#ffffff;fill-opacity:1;stroke:none;stroke-width:1px;stroke-linecap:butt;stroke-linejoin:miter;stroke-opacity:1"
         d="M 371.15001,-0.36780488 395.14912,-0.23560989 395.14913,23.5 H 371.01781 Z"
         id="path1642" /></mask></defs><sodipodi:namedview
     id="namedview6"
     pagecolor="#ffffff"
     bordercolor="#666666"
     borderopacity="1.0"
     inkscape:showpageshadow="2"
     inkscape:pageopacity="0.0"
     inkscape:pagecheckerboard="0"
     inkscape:deskcolor="#d1d1d1"
     showgrid="false"
     inkscape:zoom="1"
     inkscape:cx="570"
     inkscape:cy="160"
     inkscape:window-width="2560"
     inkscape:window-height="1377"
     inkscape:window-x="-8"
     inkscape:window-y="-8"
     inkscape:window-maximized="1"
     inkscape:current-layer="layer1"
     showguides="true"><inkscape:page
       x="0"
       y="0"
       width="48"
       height="48"
       id="page1429"
       inkscape:label="EvMulti"
       inkscape:export-filename="..\HeatNavigator\EvMulti.png"
       inkscape:export-xdpi="96"
       inkscape:export-ydpi="96"
       margin="0"
       bleed="0" /></sodipodi:namedview><g
     inkscape:groupmode="layer"
     id="layer7"
     inkscape:label="EvMulti"
     transform="translate(-348)"><path
       d="m 372.04254,47.04049 q -4.73685,0 -8.9538,-1.814438 -4.21696,-1.814439 -7.36523,-4.953706 -3.14827,-3.139267 -4.96791,-7.344156 -1.81965,-4.204889 -1.81965,-8.92819 0,-4.780902 1.81965,-8.985791 1.81964,-4.20489 4.96791,-7.3153558 3.14827,-3.1104662 7.36523,-4.9249048 4.21695,-1.81443855 8.9538,-1.81443855 4.79462,0 9.01157,1.81443855 4.21695,1.8144386 7.33634,4.9249048 3.11939,3.1104658 4.93903,7.3153558 1.81965,4.204889 1.81965,8.985791 0,4.723301 -1.81965,8.92819 -1.81964,4.204889 -4.93903,7.344156 -3.11939,3.139267 -7.33634,4.953706 -4.21695,1.814438 -9.01157,1.814438 z m 0,-3.456073 q 8.20284,0 13.92172,-5.731322 5.71888,-5.731322 5.71888,-13.853095 0,-8.179374 -5.71888,-13.881895 -5.71888,-5.7025216 -13.92172,-5.7025216 -8.14507,0 -13.89284,5.7025216 -5.74776,5.702521 -5.74776,13.881895 0,8.121773 5.74776,13.853095 5.74777,5.731322 13.89284,5.731322 z m 0,-19.584417 z"
       id="path2-3-7"
       style="stroke-width:1.15368" /><ellipse
       style="opacity:0.5;fill:#e9ddaf;stroke:none;stroke-width:3.34902;stop-color:#000000"
       id="path289-1-8"
       cx="372.04254"
       cy="24"
       rx="19.695723"
       ry="19.665907" /><ellipse
       style="opacity:0.5;fill:#e9afaf;stroke:none;stroke-width:3.34902;stop-color:#000000"
       id="path289-7-6"
       cx="372.04254"
       cy="24"
       rx="19.695723"
       ry="19.665907"
       mask="url(#mask1640)" /><ellipse
       style="opacity:0.5;fill:#afdde9;stroke:none;stroke-width:3.34902;stop-color:#000000"
       id="path289-2"
       cx="372.04254"
       cy="24"
       rx="19.695723"
       ry="19.665907"
       mask="url(#mask1612)"
       transform="matrix(0.97467575,0,0,0.98402813,9.9204785,0.69742603)" /><ellipse
       style="opacity:0.5;fill:#afe9c6;stroke:none;stroke-width:3.34902;stop-color:#000000"
       id="path289-0-2"
       cx="372.04254"
       cy="24"
       rx="19.695723"
       ry="19.665907"
       mask="url(#mask1584)" /></g></svg>
