<?xml version="1.0" encoding="UTF-8" standalone="no"?>
<svg
   height="48"
   width="48"
   version="1.1"
   id="svg4"
   sodipodi:docname="SCMCollection.svg"
   xml:space="preserve"
   inkscape:version="1.4 (86a8ad7, 2024-10-11)"
   inkscape:export-batch-path="Export"
   inkscape:export-batch-name=""
   xmlns:inkscape="http://www.inkscape.org/namespaces/inkscape"
   xmlns:sodipodi="http://sodipodi.sourceforge.net/DTD/sodipodi-0.dtd"
   xmlns="http://www.w3.org/2000/svg"
   xmlns:svg="http://www.w3.org/2000/svg"><defs
     id="defs8" /><sodipodi:namedview
     id="namedview6"
     pagecolor="#ffffff"
     bordercolor="#666666"
     borderopacity="1.0"
     inkscape:showpageshadow="2"
     inkscape:pageopacity="0.0"
     inkscape:pagecheckerboard="0"
     inkscape:deskcolor="#d1d1d1"
     showgrid="false"
     inkscape:zoom="1"
     inkscape:cx="570"
     inkscape:cy="160"
     inkscape:window-width="2560"
     inkscape:window-height="1377"
     inkscape:window-x="-8"
     inkscape:window-y="-8"
     inkscape:window-maximized="1"
     inkscape:current-layer="layer1"
     showguides="true"><inkscape:page
       x="0"
       y="0"
       width="48"
       height="48"
       id="page1334"
       inkscape:label="EvRed"
       inkscape:export-filename="..\HeatNavigator\EvRed.png"
       inkscape:export-xdpi="96"
       inkscape:export-ydpi="96"
       margin="0"
       bleed="0" /></sodipodi:namedview><g
     inkscape:groupmode="layer"
     id="layer2"
     inkscape:label="EvRed"
     transform="translate(-58)"><ellipse
       style="opacity:0.5;fill:#e9afaf;stroke:none;stroke-width:3.34902;stop-color:#000000"
       id="path289-7"
       cx="82.007095"
       cy="24"
       rx="19.695723"
       ry="19.665907" /><path
       d="m 82.007091,47.04049 q -4.736851,0 -8.9538,-1.814438 -4.21696,-1.814439 -7.36523,-4.953706 -3.14827,-3.139267 -4.96791,-7.344156 -1.81965,-4.204889 -1.81965,-8.92819 0,-4.780902 1.81965,-8.985791 1.81964,-4.20489 4.96791,-7.3153568 3.14827,-3.110466 7.36523,-4.924905 4.216949,-1.81443792 8.9538,-1.81443792 4.794617,0 9.011569,1.81443792 4.216953,1.814439 7.336342,4.924905 3.119388,3.1104668 4.939038,7.3153568 1.81964,4.204889 1.81964,8.985791 0,4.723301 -1.81964,8.92819 -1.81965,4.204889 -4.939038,7.344156 -3.119389,3.139267 -7.336342,4.953706 -4.216952,1.814438 -9.011569,1.814438 z m 0,-3.456073 q 8.202839,0 13.921719,-5.731322 5.71888,-5.731322 5.71888,-13.853095 0,-8.179374 -5.71888,-13.881895 -5.71888,-5.7025228 -13.921719,-5.7025228 -8.14507,0 -13.89284,5.7025228 -5.74776,5.702521 -5.74776,13.881895 0,8.121773 5.74776,13.853095 5.74777,5.731322 13.89284,5.731322 z m 0,-19.584417 z"
       id="path2-4"
       style="stroke-width:1.15368" /></g></svg>
