<?xml version="1.0" encoding="UTF-8" standalone="no"?>
<svg
   height="48"
   width="48"
   version="1.1"
   id="svg4"
   sodipodi:docname="SCMCollection.svg"
   xml:space="preserve"
   inkscape:version="1.4 (86a8ad7, 2024-10-11)"
   inkscape:export-batch-path="Export"
   inkscape:export-batch-name=""
   xmlns:inkscape="http://www.inkscape.org/namespaces/inkscape"
   xmlns:sodipodi="http://sodipodi.sourceforge.net/DTD/sodipodi-0.dtd"
   xmlns="http://www.w3.org/2000/svg"
   xmlns:svg="http://www.w3.org/2000/svg"><defs
     id="defs8" /><sodipodi:namedview
     id="namedview6"
     pagecolor="#ffffff"
     bordercolor="#666666"
     borderopacity="1.0"
     inkscape:showpageshadow="2"
     inkscape:pageopacity="0.0"
     inkscape:pagecheckerboard="0"
     inkscape:deskcolor="#d1d1d1"
     showgrid="false"
     inkscape:zoom="1"
     inkscape:cx="570"
     inkscape:cy="160"
     inkscape:window-width="2560"
     inkscape:window-height="1377"
     inkscape:window-x="-8"
     inkscape:window-y="-8"
     inkscape:window-maximized="1"
     inkscape:current-layer="layer1"
     showguides="true"><inkscape:page
       x="0"
       y="0"
       width="48"
       height="48"
       id="page1696"
       inkscape:label="EvStarPurple"
       inkscape:export-filename="..\Documents\GitHub\SCM_SwimClubMeet-P\ASSETS\HeatNavigator\EvStarPurple.png"
       inkscape:export-xdpi="96"
       inkscape:export-ydpi="96"
       margin="0"
       bleed="0" /></sodipodi:namedview><g
     inkscape:groupmode="layer"
     id="layer13"
     inkscape:label="StarPurple"
     transform="translate(-696)"><path
       d="m 701.19617,47.04049 q -1.49912,0 -2.62346,-1.152024 -1.12434,-1.152024 -1.12434,-2.688058 V 4.7995914 q 0,-1.5360326 1.12434,-2.6880571 1.12434,-1.15202459 2.62346,-1.15202459 h 37.4781 q 1.49912,0 2.62346,1.15202459 1.12434,1.1520245 1.12434,2.6880571 V 43.200408 q 0,1.536034 -1.12434,2.688058 -1.12434,1.152024 -2.62346,1.152024 z m 0,-3.840082 h 37.4781 V 4.7995914 h -37.4781 z"
       id="path1677-5"
       style="stroke-width:1.26455" /><path
       sodipodi:type="star"
       style="fill:#c6afe9;fill-opacity:1;stroke:#000000;stroke-width:1.484;stroke-dasharray:none;stroke-opacity:1;stop-color:#000000"
       id="path4392"
       inkscape:flatsided="false"
       sodipodi:sides="5"
       sodipodi:cx="716.89471"
       sodipodi:cy="30.404903"
       sodipodi:r1="21.422155"
       sodipodi:r2="10.711077"
       sodipodi:arg1="-1.54611"
       sodipodi:arg2="-0.91779145"
       inkscape:rounded="0"
       inkscape:randomized="0"
       d="m 717.42349,8.9892752 5.97902,12.9082298 14.02308,2.392506 -10.42884,9.675239 2.05796,14.07607 -12.42439,-6.928603 -12.75119,6.306984 2.75015,-13.957352 -9.93864,-10.178139 14.12408,-1.697514 z"
       inkscape:transform-center-x="-0.049258069"
       inkscape:transform-center-y="-1.640602"
       transform="matrix(0.85430546,-0.01316682,0.01365081,0.82401582,107.08477,10.154103)" /></g></svg>
