<?xml version="1.0" encoding="UTF-8" standalone="no"?>
<svg
   height="48"
   width="48"
   version="1.1"
   id="svg4"
   sodipodi:docname="SCMCollection.svg"
   xml:space="preserve"
   inkscape:version="1.4 (86a8ad7, 2024-10-11)"
   inkscape:export-batch-path="Export"
   inkscape:export-batch-name=""
   xmlns:inkscape="http://www.inkscape.org/namespaces/inkscape"
   xmlns:sodipodi="http://sodipodi.sourceforge.net/DTD/sodipodi-0.dtd"
   xmlns="http://www.w3.org/2000/svg"
   xmlns:svg="http://www.w3.org/2000/svg"><defs
     id="defs8"><inkscape:path-effect
       effect="powerclip"
       id="path-effect3185"
       is_visible="true"
       lpeversion="1"
       inverse="true"
       flatten="false"
       hide_clip="false"
       message="" /><inkscape:path-effect
       effect="powerclip"
       id="path-effect3181"
       is_visible="true"
       lpeversion="1"
       inverse="true"
       flatten="false"
       hide_clip="false"
       message="" /><inkscape:path-effect
       effect="powerclip"
       id="path-effect3166"
       is_visible="true"
       lpeversion="1"
       inverse="true"
       flatten="false"
       hide_clip="false"
       message="" /><inkscape:path-effect
       effect="powerclip"
       id="path-effect3162"
       is_visible="true"
       lpeversion="1"
       inverse="true"
       flatten="false"
       hide_clip="false"
       message="" /><inkscape:path-effect
       effect="powerclip"
       id="path-effect3158"
       is_visible="true"
       lpeversion="1"
       inverse="true"
       flatten="false"
       hide_clip="false"
       message="" /><clipPath
       clipPathUnits="userSpaceOnUse"
       id="clipPath3146"><ellipse
         style="display:none;fill:#e5b822;fill-opacity:1;stroke:none;stroke-width:1.7;stroke-dashoffset:0.8406;stroke-opacity:1;stop-color:#000000"
         id="ellipse3148"
         cx="2101.5586"
         cy="13.537243"
         rx="11.5533"
         ry="11.520245"
         d="m 2113.1119,13.537243 a 11.5533,11.520245 0 0 1 -11.5533,11.520244 11.5533,11.520245 0 0 1 -11.5533,-11.520244 11.5533,11.520245 0 0 1 11.5533,-11.5202447 11.5533,11.520245 0 0 1 11.5533,11.5202447 z" /><path
         id="lpe_path-effect3158"
         style="display:inline;fill:#e5b822;fill-opacity:1;stroke:none;stroke-width:1.7;stroke-dashoffset:0.8406;stroke-opacity:1;stop-color:#000000"
         class="powerclip"
         d="M 2094.8934,6.876537 H 2128 v 33.04049 h -33.1066 z m 18.2185,6.660706 a 11.5533,11.520245 0 0 0 -11.5533,-11.5202447 11.5533,11.520245 0 0 0 -11.5533,11.5202447 11.5533,11.520245 0 0 0 11.5533,11.520244 11.5533,11.520245 0 0 0 11.5533,-11.520244 z" /></clipPath><clipPath
       clipPathUnits="userSpaceOnUse"
       id="clipPath3150"><ellipse
         style="display:none;fill:#e5b822;fill-opacity:1;stroke:none;stroke-width:1.7;stroke-dashoffset:0.8406;stroke-opacity:1;stop-color:#000000"
         id="ellipse3152"
         cx="2101.5586"
         cy="13.537243"
         rx="11.5533"
         ry="11.520245"
         d="m 2113.1119,13.537243 a 11.5533,11.520245 0 0 1 -11.5533,11.520244 11.5533,11.520245 0 0 1 -11.5533,-11.520244 11.5533,11.520245 0 0 1 11.5533,-11.5202447 11.5533,11.520245 0 0 1 11.5533,11.5202447 z" /><path
         id="lpe_path-effect3162"
         style="display:inline;fill:#e5b822;fill-opacity:1;stroke:none;stroke-width:1.7;stroke-dashoffset:0.8406;stroke-opacity:1;stop-color:#000000"
         class="powerclip"
         d="m 2106.4467,8.5995748 h 19.8202 V 38.191697 h -19.8202 z m 6.6652,4.9376682 a 11.5533,11.520245 0 0 0 -11.5533,-11.5202447 11.5533,11.520245 0 0 0 -11.5533,11.5202447 11.5533,11.520245 0 0 0 11.5533,11.520244 11.5533,11.520245 0 0 0 11.5533,-11.520244 z" /></clipPath><clipPath
       clipPathUnits="userSpaceOnUse"
       id="clipPath3154"><ellipse
         style="display:none;fill:#e5b822;fill-opacity:1;stroke:none;stroke-width:1.7;stroke-dashoffset:0.8406;stroke-opacity:1;stop-color:#000000"
         id="ellipse3156"
         cx="2101.5586"
         cy="13.537243"
         rx="11.5533"
         ry="11.520245"
         d="m 2113.1119,13.537243 a 11.5533,11.520245 0 0 1 -11.5533,11.520244 11.5533,11.520245 0 0 1 -11.5533,-11.520244 11.5533,11.520245 0 0 1 11.5533,-11.5202447 11.5533,11.520245 0 0 1 11.5533,11.5202447 z" /><path
         id="lpe_path-effect3166"
         style="display:inline;fill:#e5b822;fill-opacity:1;stroke:none;stroke-width:1.7;stroke-dashoffset:0.8406;stroke-opacity:1;stop-color:#000000"
         class="powerclip"
         d="m 2096.6265,8.5995748 h 19.8202 V 38.191697 h -19.8202 z m 16.4854,4.9376682 a 11.5533,11.520245 0 0 0 -11.5533,-11.5202447 11.5533,11.520245 0 0 0 -11.5533,11.5202447 11.5533,11.520245 0 0 0 11.5533,11.520244 11.5533,11.520245 0 0 0 11.5533,-11.520244 z" /></clipPath><clipPath
       clipPathUnits="userSpaceOnUse"
       id="clipPath3173"><ellipse
         style="display:none;fill:#e5b822;fill-opacity:1;stroke:none;stroke-width:1.7;stroke-dashoffset:0.8406;stroke-opacity:1;stop-color:#000000"
         id="ellipse3175"
         cx="2110.9612"
         cy="23.459114"
         rx="11.5533"
         ry="11.520245"
         d="m 2122.5145,23.459114 a 11.5533,11.520245 0 0 1 -11.5533,11.520245 11.5533,11.520245 0 0 1 -11.5533,-11.520245 11.5533,11.520245 0 0 1 11.5533,-11.520245 11.5533,11.520245 0 0 1 11.5533,11.520245 z" /><path
         id="lpe_path-effect3181"
         style="display:inline;fill:#e5b822;fill-opacity:1;stroke:none;stroke-width:1.7;stroke-dashoffset:0.8406;stroke-opacity:1;stop-color:#000000"
         class="powerclip"
         d="m 2108.1121,20.057487 h 29.7758 v 29.719079 h -29.7758 z m 14.4024,3.401627 a 11.5533,11.520245 0 0 0 -11.5533,-11.520245 11.5533,11.520245 0 0 0 -11.5533,11.520245 11.5533,11.520245 0 0 0 11.5533,11.520245 11.5533,11.520245 0 0 0 11.5533,-11.520245 z" /></clipPath><clipPath
       clipPathUnits="userSpaceOnUse"
       id="clipPath3177"><ellipse
         style="display:none;fill:#e5b822;fill-opacity:1;stroke:none;stroke-width:1.7;stroke-dashoffset:0.8406;stroke-opacity:1;stop-color:#000000"
         id="ellipse3179"
         cx="2110.9612"
         cy="23.459114"
         rx="11.5533"
         ry="11.520245"
         d="m 2122.5145,23.459114 a 11.5533,11.520245 0 0 1 -11.5533,11.520245 11.5533,11.520245 0 0 1 -11.5533,-11.520245 11.5533,11.520245 0 0 1 11.5533,-11.520245 11.5533,11.520245 0 0 1 11.5533,11.520245 z" /><path
         id="lpe_path-effect3185"
         style="display:inline;fill:#e5b822;fill-opacity:1;stroke:none;stroke-width:1.7;stroke-dashoffset:0.8406;stroke-opacity:1;stop-color:#000000"
         class="powerclip"
         d="m 2106.4467,18.396782 h 33.1066 v 33.04049 h -33.1066 z m 16.0678,5.062332 a 11.5533,11.520245 0 0 0 -11.5533,-11.520245 11.5533,11.520245 0 0 0 -11.5533,11.520245 11.5533,11.520245 0 0 0 11.5533,11.520245 11.5533,11.520245 0 0 0 11.5533,-11.520245 z" /></clipPath></defs><sodipodi:namedview
     id="namedview6"
     pagecolor="#ffffff"
     bordercolor="#666666"
     borderopacity="1.0"
     inkscape:showpageshadow="2"
     inkscape:pageopacity="0.0"
     inkscape:pagecheckerboard="0"
     inkscape:deskcolor="#d1d1d1"
     showgrid="false"
     inkscape:zoom="1"
     inkscape:cx="570"
     inkscape:cy="160"
     inkscape:window-width="2560"
     inkscape:window-height="1377"
     inkscape:window-x="-8"
     inkscape:window-y="-8"
     inkscape:window-maximized="1"
     inkscape:current-layer="layer1"
     showguides="true"><inkscape:page
       x="0"
       y="0"
       width="48"
       height="48"
       id="page1579"
       inkscape:label="HeatStatusToggle"
       inkscape:export-filename="Export\HeatStatusToggle.svg"
       inkscape:export-xdpi="96"
       inkscape:export-ydpi="96"
       margin="0"
       bleed="0" /></sodipodi:namedview><g
     inkscape:groupmode="layer"
     id="layer25"
     inkscape:label="HeatStatusCollection"
     style="display:inline"
     transform="translate(-2088)"><g
       inkscape:groupmode="layer"
       id="layer26"
       inkscape:label="StatusToggleBtn"><g
         id="g1705"
         transform="translate(0.5533)"><path
           d="m 2123,46.437272 q -2.3684,0 -4.4769,-0.907219 -2.1085,-0.90722 -3.6826,-2.476853 -1.5741,-1.569633 -2.484,-3.672078 -0.9098,-2.102445 -0.9098,-4.464095 0,-2.390451 0.9098,-4.492895 0.9099,-2.102445 2.484,-3.657678 1.5742,-1.555233 3.6826,-2.462453 2.1085,-0.907219 4.4769,-0.907219 2.3973,0 4.5058,0.907219 2.1085,0.90722 3.6681,2.462453 1.5598,1.555233 2.4696,3.657678 0.9098,2.102444 0.9098,4.492895 0,2.36165 -0.9098,4.464095 -0.9098,2.102445 -2.4696,3.672078 -1.5596,1.569633 -3.6681,2.476853 -2.1084,0.907219 -4.5058,0.907219 z m 0,-1.728037 q 4.1014,0 6.9609,-2.86566 2.8595,-2.865661 2.8595,-6.926547 0,-4.089688 -2.8595,-6.940948 -2.8595,-2.851261 -6.9609,-2.851261 -4.0725,0 -6.9464,2.851261 -2.8738,2.85126 -2.8738,6.940948 0,4.060886 2.8738,6.926547 2.8739,2.86566 6.9464,2.86566 z m 0,-9.792208 z"
           id="path2-3-0-5-7"
           style="display:inline;fill:#000000;fill-opacity:1;stroke:none;stroke-width:0.57684;stroke-opacity:1"
           clip-path="url(#clipPath3177)"
           inkscape:original-d="m 2123,46.437272 q -2.3684,0 -4.4769,-0.907219 -2.1085,-0.90722 -3.6826,-2.476853 -1.5741,-1.569633 -2.484,-3.672078 -0.9098,-2.102445 -0.9098,-4.464095 0,-2.390451 0.9098,-4.492895 0.9099,-2.102445 2.484,-3.657678 1.5742,-1.555233 3.6826,-2.462453 2.1085,-0.907219 4.4769,-0.907219 2.3973,0 4.5058,0.907219 2.1085,0.90722 3.6681,2.462453 1.5598,1.555233 2.4696,3.657678 0.9098,2.102444 0.9098,4.492895 0,2.36165 -0.9098,4.464095 -0.9098,2.102445 -2.4696,3.672078 -1.5596,1.569633 -3.6681,2.476853 -2.1084,0.907219 -4.5058,0.907219 z m 0,-1.728037 q 4.1014,0 6.9609,-2.86566 2.8595,-2.865661 2.8595,-6.926547 0,-4.089688 -2.8595,-6.940948 -2.8595,-2.851261 -6.9609,-2.851261 -4.0725,0 -6.9464,2.851261 -2.8738,2.85126 -2.8738,6.940948 0,4.060886 2.8738,6.926547 2.8739,2.86566 6.9464,2.86566 z m 0,-9.792208 z"
           inkscape:path-effect="#path-effect3185" /><path
           style="display:inline;fill:#000000;fill-opacity:1;stroke:none;stroke-width:0.85;stroke-dashoffset:0.8406;stroke-opacity:1;stop-color:#000000"
           id="path1571-8"
           clip-path="url(#clipPath3173)"
           d="m 2132.8879,34.917027 a 9.8878822,9.859539 0 0 1 -9.8879,9.859539 9.8878822,9.859539 0 0 1 -9.8879,-9.859539 9.8878822,9.859539 0 0 1 9.8879,-9.85954 9.8878822,9.859539 0 0 1 9.8879,9.85954 z"
           sodipodi:type="arc"
           sodipodi:ry="9.859539"
           sodipodi:rx="9.8878822"
           sodipodi:cy="34.917027"
           sodipodi:cx="2123"
           inkscape:path-effect="#path-effect3181" /></g><g
         id="g1701"
         transform="translate(0.06775958,0.06233194)"><path
           style="display:inline;fill:#000000;fill-opacity:1;stroke:none;stroke-width:0.5px;stroke-linecap:butt;stroke-linejoin:miter;stroke-opacity:1"
           d="M 2111.4467,13.604574 V 33.18899 c 0,0 -9.8202,0.436961 -9.8202,-9.792208 0,-10.338843 9.8202,-9.792208 9.8202,-9.792208"
           id="path865-7"
           sodipodi:nodetypes="ccsc"
           clip-path="url(#clipPath3154)"
           inkscape:original-d="M 2111.4467,13.604574 V 33.18899 c 0,0 -9.8202,0.436961 -9.8202,-9.792208 0,-10.338843 9.8202,-9.792208 9.8202,-9.792208"
           inkscape:path-effect="#path-effect3166" /><path
           style="display:none;fill:#ffffff;fill-opacity:1;stroke:none;stroke-width:0.5px;stroke-linecap:butt;stroke-linejoin:miter;stroke-opacity:1"
           d="M 2111.4467,13.604574 V 33.18899 c 0,0 9.8202,0.436961 9.8202,-9.792208 0,-10.338843 -9.8202,-9.792208 -9.8202,-9.792208"
           id="path1690"
           sodipodi:nodetypes="ccsc"
           clip-path="url(#clipPath3150)"
           inkscape:original-d="M 2111.4467,13.604574 V 33.18899 c 0,0 9.8202,0.436961 9.8202,-9.792208 0,-10.338843 -9.8202,-9.792208 -9.8202,-9.792208"
           inkscape:path-effect="#path-effect3162" /><path
           d="m 2111.4467,34.917027 q -2.3684,0 -4.4769,-0.907219 -2.1085,-0.90722 -3.6826,-2.476853 -1.5741,-1.569633 -2.484,-3.672078 -0.9098,-2.102445 -0.9098,-4.464095 0,-2.390451 0.9098,-4.492895 0.9099,-2.102445 2.484,-3.657679 1.5742,-1.555232 3.6826,-2.462452 2.1085,-0.907219 4.4769,-0.907219 2.3973,0 4.5058,0.907219 2.1085,0.90722 3.6681,2.462452 1.5598,1.555233 2.4696,3.657679 0.9098,2.102444 0.9098,4.492895 0,2.36165 -0.9098,4.464095 -0.9098,2.102445 -2.4696,3.672078 -1.5596,1.569633 -3.6681,2.476853 -2.1084,0.907219 -4.5058,0.907219 z m 0,-1.728037 q 4.1014,0 6.9609,-2.86566 2.8595,-2.865661 2.8595,-6.926548 0,-4.089687 -2.8595,-6.940948 -2.8595,-2.851261 -6.9609,-2.851261 -4.0725,0 -6.9464,2.851261 -2.8738,2.851261 -2.8738,6.940948 0,4.060886 2.8738,6.926547 2.8739,2.865661 6.9464,2.865661 z m 0,-9.792208 z"
           id="path2-3-0-0-6"
           style="display:inline;stroke-width:0.57684"
           clip-path="url(#clipPath3146)"
           inkscape:original-d="m 2111.4467,34.917027 q -2.3684,0 -4.4769,-0.907219 -2.1085,-0.90722 -3.6826,-2.476853 -1.5741,-1.569633 -2.484,-3.672078 -0.9098,-2.102445 -0.9098,-4.464095 0,-2.390451 0.9098,-4.492895 0.9099,-2.102445 2.484,-3.657679 1.5742,-1.555232 3.6826,-2.462452 2.1085,-0.907219 4.4769,-0.907219 2.3973,0 4.5058,0.907219 2.1085,0.90722 3.6681,2.462452 1.5598,1.555233 2.4696,3.657679 0.9098,2.102444 0.9098,4.492895 0,2.36165 -0.9098,4.464095 -0.9098,2.102445 -2.4696,3.672078 -1.5596,1.569633 -3.6681,2.476853 -2.1084,0.907219 -4.5058,0.907219 z m 0,-1.728037 q 4.1014,0 6.9609,-2.86566 2.8595,-2.865661 2.8595,-6.926548 0,-4.089687 -2.8595,-6.940948 -2.8595,-2.851261 -6.9609,-2.851261 -4.0725,0 -6.9464,2.851261 -2.8738,2.851261 -2.8738,6.940948 0,4.060886 2.8738,6.926547 2.8739,2.865661 6.9464,2.865661 z m 0,-9.792208 z"
           inkscape:path-effect="#path-effect3158" /></g><g
         id="g1696"
         transform="translate(-0.3202,-4.1903211)"><ellipse
           style="display:none;fill:#ffffff;fill-opacity:1;stroke:none;stroke-width:0.85;stroke-dashoffset:0.8406;stroke-opacity:1;stop-color:#000000"
           id="path1571-8-9"
           cx="2101.9468"
           cy="17.789896"
           rx="9.8878822"
           ry="9.859539" /><path
           d="m 2101.9467,29.310141 q -2.3684,0 -4.4769,-0.907219 -2.1085,-0.90722 -3.6826,-2.476853 -1.5741,-1.569633 -2.484,-3.672078 -0.9098,-2.102445 -0.9098,-4.464095 0,-2.390451 0.9098,-4.492895 0.9099,-2.102445 2.484,-3.6576781 1.5742,-1.555234 3.6826,-2.462453 2.1085,-0.907219 4.4769,-0.907219 2.3973,0 4.5058,0.907219 2.1085,0.907219 3.6681,2.462453 1.5598,1.5552331 2.4696,3.6576781 0.9098,2.102444 0.9098,4.492895 0,2.36165 -0.9098,4.464095 -0.9098,2.102445 -2.4696,3.672078 -1.5596,1.569633 -3.6681,2.476853 -2.1084,0.907219 -4.5058,0.907219 z m 0,-1.728036 q 4.1014,0 6.9609,-2.865661 2.8595,-2.865661 2.8595,-6.926548 0,-4.089687 -2.8595,-6.940947 -2.8595,-2.8512621 -6.9609,-2.8512621 -4.0725,0 -6.9464,2.8512621 -2.8738,2.85126 -2.8738,6.940947 0,4.060887 2.8738,6.926548 2.8739,2.865661 6.9464,2.865661 z m 0,-9.792209 z"
           id="path2-3-0-9-1"
           style="display:inline;stroke-width:0.57684" /></g></g></g></svg>
