<?xml version="1.0" encoding="UTF-8" standalone="no"?>
<svg
   height="32"
   width="32"
   version="1.1"
   id="svg4"
   sodipodi:docname="SCMCollection.svg"
   xml:space="preserve"
   inkscape:version="1.4 (86a8ad7, 2024-10-11)"
   inkscape:export-batch-path="Export"
   inkscape:export-batch-name=""
   xmlns:inkscape="http://www.inkscape.org/namespaces/inkscape"
   xmlns:sodipodi="http://sodipodi.sourceforge.net/DTD/sodipodi-0.dtd"
   xmlns="http://www.w3.org/2000/svg"
   xmlns:svg="http://www.w3.org/2000/svg"><defs
     id="defs8" /><sodipodi:namedview
     id="namedview6"
     pagecolor="#ffffff"
     bordercolor="#666666"
     borderopacity="1.0"
     inkscape:showpageshadow="2"
     inkscape:pageopacity="0.0"
     inkscape:pagecheckerboard="0"
     inkscape:deskcolor="#d1d1d1"
     showgrid="false"
     inkscape:zoom="1"
     inkscape:cx="570"
     inkscape:cy="160"
     inkscape:window-width="2560"
     inkscape:window-height="1377"
     inkscape:window-x="-8"
     inkscape:window-y="-8"
     inkscape:window-maximized="1"
     inkscape:current-layer="layer1"
     showguides="true"><inkscape:page
       x="0"
       y="0"
       width="32"
       height="32"
       id="page7"
       margin="0"
       bleed="0"
       inkscape:label="Sync" /></sodipodi:namedview><path
     d="m 3.9999555,16 c 0,-6.6274197 5.3726,-12.0000027 11.9999995,-12.0000027 6.6274,0 12,5.372583 12,12.0000027 0,6.6274 -5.3726,12 -12,12 C 9.3725555,28 3.9999555,22.6274 3.9999555,16 Z M 15.999955,1.9999973 C 8.2679555,1.9999973 1.9999555,8.2680103 1.9999555,16 c 0,7.732 6.268,14 13.9999995,14 7.732,0 14,-6.268 14,-14 0,-7.7319897 -6.268,-14.0000027 -14,-14.0000027 z m 8,9.0000027 c 0,-0.5523 -0.4477,-1 -1,-1 -0.5523,0 -1,0.4477 -1,1 v 1.3924 c -1.2249,-2.0328 -3.4537,-3.3923997 -6,-3.3923997 -2.0732,0 -3.937,0.9026 -5.2173,2.3330997 -0.3683,0.4115 -0.3333,1.0437 0.078,1.412 0.4115,0.3684 1.0437,0.3333 1.4121,-0.0782 0.9171,-1.0245 2.2465,-1.6669 3.7272,-1.6669 2.0504,0 3.8124,1.2341 4.584,3 h -1.584 c -0.5523,0 -1,0.4477 -1,1 0,0.5523 0.4477,1 1,1 h 4 c 0.5523,0 1,-0.4477 1,-1 z M 8.9999555,22 c -0.5523,0 -1,-0.4477 -1,-1 v -4 c 0,-0.5523 0.4477,-1 1,-1 h 3.9999995 c 0.5523,0 1,0.4477 1,1 0,0.5523 -0.4477,1 -1,1 h -1.5839 c 0.7715,1.7659 2.5336,3 4.5839,3 1.4808,0 2.8101,-0.6424 3.7271,-1.6669 0.3683,-0.4115 1.0005,-0.4466 1.4121,-0.0782 0.4115,0.3683 0.4465,1.0005 0.078,1.412 -1.2801,1.4305 -3.1439,2.3331 -5.2172,2.3331 -2.5463,0 -4.7751,-1.3596 -5.9999995,-3.3925 V 21 c 0,0.5523 -0.4477,1 -1,1 z"
     id="path1" /></svg>
